<svg xmlns="http://www.w3.org/2000/svg" viewBox="0 0 580 218"><defs><style>.cls-1{fill:#fcee21;}.cls-2,.cls-3{fill:#2a428f;}.cls-2{opacity:0.49;}</style></defs><title>COMPANY-NAMEAtivo 1</title><g id="Camada_2" data-name="Camada 2"><g id="Camada_2-2" data-name="Camada 2"><rect class="cls-1" width="580" height="218" rx="23.88"/></g><g id="Camada_1-2" data-name="Camada 1"><path class="cls-2" d="M211.61,76.14,192,89,111,28l18-15Z"/><path class="cls-3" d="M195,129l15,12-83,64-14.21-13.25Z"/><path class="cls-3" d="M129,13l12.57,14.68L61,90,45,78Z"/><path class="cls-3" d="M195,64l15,13-98,76L95.79,139.75Z"/><path class="cls-3" d="M63,166l15.89,13.66L45,206V180Z"/><path class="cls-3" d="M211,12.93,211,39,194,52,178,39Z"/><path class="cls-3" d="M144,65l16,13L62,153,46,142Z"/><path class="cls-3" d="M146.61,189.14,128,205,46,142l20-15Z"/><path class="cls-3" d="M211.61,76.14,192,90,110,28l19-16Z"/><path class="cls-3" d="M153,96l-42,33,59,44,.79-.61L211,141Z"/><path class="cls-3" d="M102,121l43-32L129,77.52,88,111Z"/><path class="cls-3" d="M121.64,71.82,88,45,45,78l34.31,26.07Z"/><path class="cls-3" d="M169,172l1,1"/><path class="cls-3" d="M238.1,75.82a33,33,0,0,1,3.72-.59,39.29,39.29,0,0,1,4.06-.21,22.44,22.44,0,0,1,4.26.4A9.35,9.35,0,0,1,253.88,77a8.55,8.55,0,0,1,2.69,3.34,13.06,13.06,0,0,1,1,5.62,14.31,14.31,0,0,1-.87,5.3,9.8,9.8,0,0,1-2.33,3.56,8.87,8.87,0,0,1-3.37,2,12.71,12.71,0,0,1-3.93.61h-.61c-.28,0-.58,0-.9,0s-.62,0-.92-.07a3.58,3.58,0,0,1-.63-.1v11.43H238.1ZM244,91.89a5.88,5.88,0,0,0,1.06.17c.52,0,.87.07,1.06.07a6.82,6.82,0,0,0,2-.29,4.22,4.22,0,0,0,1.67-1A4.74,4.74,0,0,0,251,89a9.2,9.2,0,0,0,.43-3.06,8,8,0,0,0-.4-2.66,4.47,4.47,0,0,0-1.09-1.73,4.11,4.11,0,0,0-1.58-.92,6.11,6.11,0,0,0-1.88-.28,10.59,10.59,0,0,0-2.4.23Z"/><path class="cls-3" d="M270.84,101.08h-7.77l-1.93,7.59h-5.89l9.56-33.41h4.66l9.61,33.41h-6.22Zm-6.5-4.83h5.46l-1.88-7.73-.75-5.21H267l-.8,5.26Z"/><path class="cls-3" d="M292.65,100.14a3.89,3.89,0,0,0-.9-2.59,11.35,11.35,0,0,0-2.24-2c-.89-.63-1.86-1.28-2.92-1.94a17.57,17.57,0,0,1-2.92-2.33,11.47,11.47,0,0,1-2.23-3.12,9.79,9.79,0,0,1-.9-4.41,10.23,10.23,0,0,1,.73-4.1,7.45,7.45,0,0,1,2-2.75,8.11,8.11,0,0,1,3-1.56,13.54,13.54,0,0,1,3.72-.5,20.37,20.37,0,0,1,4.47.47,12.33,12.33,0,0,1,3.44,1.28l-1.84,5.26a8.37,8.37,0,0,0-2.37-1,11.73,11.73,0,0,0-3.42-.47,4.63,4.63,0,0,0-2.83.75,2.66,2.66,0,0,0-1,2.23,3.43,3.43,0,0,0,.89,2.35,12.57,12.57,0,0,0,2.24,2c.89.64,1.87,1.29,2.92,2A17.82,17.82,0,0,1,295.45,92a12,12,0,0,1,2.24,3.18,9.81,9.81,0,0,1,.89,4.33,11.74,11.74,0,0,1-.73,4.36,8.13,8.13,0,0,1-2.07,3.06,9,9,0,0,1-3.23,1.82,13.41,13.41,0,0,1-4.19.62,20.4,20.4,0,0,1-5.11-.57,12.94,12.94,0,0,1-3.37-1.28l1.93-5.35a14,14,0,0,0,2.59,1.13,10.77,10.77,0,0,0,3.54.57Q292.65,103.83,292.65,100.14Z"/><path class="cls-3" d="M313.32,100.14a3.93,3.93,0,0,0-.89-2.59,11.64,11.64,0,0,0-2.24-2c-.89-.63-1.87-1.28-2.92-1.94a17.57,17.57,0,0,1-2.92-2.33,11.72,11.72,0,0,1-2.24-3.12,9.93,9.93,0,0,1-.89-4.41,10.23,10.23,0,0,1,.73-4.1,7.23,7.23,0,0,1,2-2.75,8.07,8.07,0,0,1,3-1.56,13.66,13.66,0,0,1,3.73-.5,20.37,20.37,0,0,1,4.47.47,12.45,12.45,0,0,1,3.44,1.28l-1.84,5.26a8.45,8.45,0,0,0-2.38-1,11.66,11.66,0,0,0-3.41-.47,4.61,4.61,0,0,0-2.83.75,2.64,2.64,0,0,0-1,2.23,3.44,3.44,0,0,0,.9,2.35,12.23,12.23,0,0,0,2.24,2c.89.64,1.86,1.29,2.92,2A17.82,17.82,0,0,1,316.13,92a11.79,11.79,0,0,1,2.23,3.18,9.67,9.67,0,0,1,.9,4.33,12,12,0,0,1-.73,4.36,8.13,8.13,0,0,1-2.07,3.06,9,9,0,0,1-3.23,1.82,13.46,13.46,0,0,1-4.19.62,20.4,20.4,0,0,1-5.11-.57,12.8,12.8,0,0,1-3.37-1.28l1.93-5.35a14,14,0,0,0,2.59,1.13,10.75,10.75,0,0,0,3.53.57Q313.32,103.83,313.32,100.14Z"/><path class="cls-3" d="M335.79,101.08H328l-1.93,7.59H320.2l9.56-33.41h4.66L344,108.67h-6.21Zm-6.5-4.83h5.46l-1.88-7.73-.75-5.21h-.19l-.8,5.26Z"/><path class="cls-3" d="M346.06,75.82a31.39,31.39,0,0,1,4.14-.61C351.68,75.08,353,75,354,75a19.11,19.11,0,0,1,4,.4,8.93,8.93,0,0,1,3.42,1.47,7.8,7.8,0,0,1,2.4,2.89,10.3,10.3,0,0,1,.92,4.62A12.89,12.89,0,0,1,363.23,91a7.69,7.69,0,0,1-4.08,3.48L361,96l6.07,12.7h-6.83l-5.74-13.08L352,95v13.7h-5.93ZM352,90.89h2a4.11,4.11,0,0,0,3.34-1.35,6.4,6.4,0,0,0,1.13-4.19,5.94,5.94,0,0,0-.94-3.48,3.37,3.37,0,0,0-3-1.35c-.5,0-1,0-1.46,0a5.48,5.48,0,0,0-1.13.19Z"/><path class="cls-3" d="M386.66,92.36l-2.17-5.83h-.23l.75,5.74v16.4H379.4V75.26H384l9.47,16.68,2,5.73h.28L395,92V75.49h5.6V108.9H396Z"/><path class="cls-3" d="M404.09,92.08c0-5.62,1-9.91,2.87-12.84s4.83-4.41,8.76-4.41A10.84,10.84,0,0,1,421,76a9.74,9.74,0,0,1,3.62,3.46,16.85,16.85,0,0,1,2.1,5.45,34.6,34.6,0,0,1,.68,7.13q0,8.43-2.94,12.84a9.84,9.84,0,0,1-8.74,4.41,10.78,10.78,0,0,1-5.3-1.21,9.77,9.77,0,0,1-3.6-3.46,16.26,16.26,0,0,1-2.07-5.45A34.67,34.67,0,0,1,404.09,92.08Zm6.21,0a35.79,35.79,0,0,0,.29,4.67,14.13,14.13,0,0,0,.94,3.72,6.67,6.67,0,0,0,1.67,2.46,3.65,3.65,0,0,0,2.52.9,4.38,4.38,0,0,0,4.1-2.79c.91-1.87,1.36-4.85,1.36-9a34.84,34.84,0,0,0-.28-4.57,15.36,15.36,0,0,0-.92-3.75,6.54,6.54,0,0,0-1.67-2.51,3.72,3.72,0,0,0-2.59-.92Q410.31,80.33,410.3,92.08Z"/><path class="cls-3" d="M458.82,83.17a11.83,11.83,0,0,1-.26,2.44,9,9,0,0,1-.83,2.28,6.51,6.51,0,0,1-1.48,1.87A6.33,6.33,0,0,1,454.06,91v.28a8.64,8.64,0,0,1,2.14.86A5.76,5.76,0,0,1,458,93.67a7.53,7.53,0,0,1,1.2,2.37,10.77,10.77,0,0,1,.45,3.29,10.42,10.42,0,0,1-.87,4.43,8.44,8.44,0,0,1-2.36,3.06,9.83,9.83,0,0,1-3.46,1.75,15.09,15.09,0,0,1-4.19.57H447c-.69,0-1.44,0-2.24-.07s-1.62-.12-2.47-.21a17,17,0,0,1-2.35-.43V75.73c1-.19,2.31-.36,3.83-.5s3-.21,4.55-.21a23.32,23.32,0,0,1,4,.33,9.12,9.12,0,0,1,3.34,1.23A6.48,6.48,0,0,1,458,79.07,8.76,8.76,0,0,1,458.82,83.17Zm-11.54,6.4c.34,0,.74,0,1.2-.07s.82-.11,1.1-.17a5.54,5.54,0,0,0,2.34-1.71,4.71,4.71,0,0,0,1-3.08,5.78,5.78,0,0,0-.33-2.08,3.43,3.43,0,0,0-.89-1.35,3.37,3.37,0,0,0-1.35-.71,6.3,6.3,0,0,0-1.67-.22,13.9,13.9,0,0,0-2.73.19v9.2Zm1.6,14.4a4.36,4.36,0,0,0,3.25-1.28A5.07,5.07,0,0,0,453.4,99a6.14,6.14,0,0,0-.42-2.49A3.54,3.54,0,0,0,451.85,95a4,4,0,0,0-1.63-.64,13.1,13.1,0,0,0-1.91-.14h-2.4v9.43a5.14,5.14,0,0,0,1.3.21C447.82,104,448.38,104,448.88,104Z"/><path class="cls-3" d="M481.9,83.17a11.83,11.83,0,0,1-.26,2.44,9,9,0,0,1-.83,2.28,6.51,6.51,0,0,1-1.48,1.87A6.33,6.33,0,0,1,477.14,91v.28a8.64,8.64,0,0,1,2.14.86,5.88,5.88,0,0,1,1.77,1.54,7.53,7.53,0,0,1,1.2,2.37,10.77,10.77,0,0,1,.45,3.29,10.42,10.42,0,0,1-.87,4.43,8.44,8.44,0,0,1-2.36,3.06,9.83,9.83,0,0,1-3.46,1.75,15.09,15.09,0,0,1-4.19.57h-1.7c-.69,0-1.44,0-2.24-.07s-1.62-.12-2.47-.21a17.43,17.43,0,0,1-2.36-.43V75.73c1-.19,2.32-.36,3.84-.5s3-.21,4.55-.21a23.32,23.32,0,0,1,4,.33,9.18,9.18,0,0,1,3.34,1.23,6.48,6.48,0,0,1,2.29,2.49A8.76,8.76,0,0,1,481.9,83.17Zm-11.54,6.4c.34,0,.74,0,1.2-.07s.82-.11,1.1-.17A5.6,5.6,0,0,0,475,87.62a4.71,4.71,0,0,0,1-3.08,5.78,5.78,0,0,0-.33-2.08,3.43,3.43,0,0,0-.89-1.35,3.37,3.37,0,0,0-1.35-.71,6.3,6.3,0,0,0-1.67-.22,13.9,13.9,0,0,0-2.73.19v9.2ZM472,104a4.36,4.36,0,0,0,3.25-1.28A5.11,5.11,0,0,0,476.48,99a6,6,0,0,0-.43-2.49A3.38,3.38,0,0,0,474.92,95a3.86,3.86,0,0,0-1.62-.64,13.1,13.1,0,0,0-1.91-.14H469v9.43a5.14,5.14,0,0,0,1.3.21C470.9,104,471.45,104,472,104Z"/><path class="cls-3" d="M248.09,148.38h10.17v14.69a10.28,10.28,0,0,1-4.07,2.39,15.39,15.39,0,0,1-4.64.74,12.29,12.29,0,0,1-5-1,9.55,9.55,0,0,1-3.84-3.1,15.65,15.65,0,0,1-2.45-5.36,30.38,30.38,0,0,1-.87-7.79,26.81,26.81,0,0,1,1-8,15.63,15.63,0,0,1,2.75-5.33,10.12,10.12,0,0,1,4-3,12.84,12.84,0,0,1,4.82-.92,19.39,19.39,0,0,1,4.12.4,18.42,18.42,0,0,1,3.09.92L256,138.19a12,12,0,0,0-2.19-.71,13.93,13.93,0,0,0-3-.29,6.67,6.67,0,0,0-3,.67,5.67,5.67,0,0,0-2.26,2.08,11.09,11.09,0,0,0-1.42,3.68,25.38,25.38,0,0,0-.49,5.38q0,6,1.81,8.86a5.48,5.48,0,0,0,4.78,2.84,5.59,5.59,0,0,0,1.82-.29,4,4,0,0,0,1.53-.91v-6.86l-5.42-.74Z"/><path class="cls-3" d="M275.08,158h-7.77l-1.93,7.58h-5.89l9.56-33.41h4.66l9.61,33.41H277.1Zm-6.5-4.83H274l-1.88-7.73-.76-5.21h-.18l-.8,5.26Z"/><path class="cls-3" d="M292.6,149.23l-2.17-5.83h-.23l.75,5.74v16.39h-5.6V132.12h4.56l9.47,16.69,2,5.73h.28l-.75-5.64V132.36h5.6v33.41H302Z"/><path class="cls-3" d="M325.71,151.51h-9v14h-5.93V132.36h5.93V146h9V132.36h5.94v33.17h-5.94Z"/><path class="cls-3" d="M349.21,158h-7.77l-1.93,7.58h-5.89l9.56-33.41h4.67l9.61,33.41h-6.22Zm-6.5-4.83h5.47l-1.89-7.73-.75-5.21h-.19l-.8,5.26Z"/><path class="cls-3" d="M359.48,132.69a31.55,31.55,0,0,1,4.15-.61c1.47-.13,2.74-.19,3.81-.19a19.28,19.28,0,0,1,4,.4,8.89,8.89,0,0,1,3.41,1.47,7.84,7.84,0,0,1,2.41,2.89,10.3,10.3,0,0,1,.91,4.62,12.85,12.85,0,0,1-1.48,6.56,7.72,7.72,0,0,1-4.07,3.49l1.88,1.51,6.08,12.7h-6.83L368,152.46l-2.54-.62v13.69h-5.94Zm5.94,15.07h2a4.13,4.13,0,0,0,3.35-1.35,6.47,6.47,0,0,0,1.13-4.19,5.94,5.94,0,0,0-.95-3.48,3.33,3.33,0,0,0-3-1.36c-.51,0-1,0-1.46.05a4.78,4.78,0,0,0-1.13.19Z"/><path class="cls-3" d="M413.93,148.43l.66-6.35h-.24l-1.74,5.68-5.37,11.66h-2l-5.7-11.7L397.82,142h-.28l.89,6.4v17.15h-5.6V132.36h5.7l6.87,14.36,1.14,4.12h.18l1.09-4.21,6.45-14.27h5.6v33.17h-5.93Z"/><path class="cls-3" d="M424.62,132.36h5.94v33.17h-5.94Z"/><path class="cls-3" d="M452.83,165.53H435.31V132.36h5.94V160h11.58Z"/><path class="cls-3" d="M470.21,151.51h-9v14h-5.94V132.36h5.94V146h9V132.36h5.94v33.17h-5.94Z"/><path class="cls-3" d="M479.63,149q0-8.44,2.88-12.85t8.76-4.4a10.77,10.77,0,0,1,5.27,1.21,9.7,9.7,0,0,1,3.63,3.46,16.85,16.85,0,0,1,2.1,5.45A34.6,34.6,0,0,1,503,149q0,8.43-2.95,12.84a9.81,9.81,0,0,1-8.73,4.41A10.78,10.78,0,0,1,486,165a9.85,9.85,0,0,1-3.6-3.46,16.27,16.27,0,0,1-2.08-5.45A35.38,35.38,0,0,1,479.63,149Zm3.82-21.14a8.31,8.31,0,0,1,2.64-2.39,5.46,5.46,0,0,1,2.49-.64,6.46,6.46,0,0,1,1.79.26c.6.17,1.18.35,1.75.54l1.62.55a4.92,4.92,0,0,0,1.53.26,3.06,3.06,0,0,0,2.45-1.18l1.27,3a7.25,7.25,0,0,1-2.33,1.87,5.36,5.36,0,0,1-2.19.5,6.32,6.32,0,0,1-1.77-.26c-.58-.17-1.14-.36-1.69-.55l-1.63-.54a5.2,5.2,0,0,0-1.6-.26,3.82,3.82,0,0,0-1.55.33,4.56,4.56,0,0,0-1.56,1.28Zm2.4,21.14a37.71,37.71,0,0,0,.28,4.67,14.62,14.62,0,0,0,.95,3.72,6.56,6.56,0,0,0,1.67,2.46,3.64,3.64,0,0,0,2.52.9,4.38,4.38,0,0,0,4.1-2.8q1.36-2.79,1.36-9a35.1,35.1,0,0,0-.28-4.58,15.87,15.87,0,0,0-.92-3.74,6.54,6.54,0,0,0-1.67-2.51,3.74,3.74,0,0,0-2.59-.93Q485.86,137.19,485.85,149Z"/><path class="cls-3" d="M506.43,132.36h16.49v5.5H512.37V146h9.56v5.5h-9.56V160h10.74v5.49H506.43Z"/><path class="cls-3" d="M538.23,157a3.86,3.86,0,0,0-.9-2.58,11.35,11.35,0,0,0-2.24-2c-.89-.63-1.86-1.28-2.92-1.95a17,17,0,0,1-2.92-2.32A11.37,11.37,0,0,1,527,145a9.75,9.75,0,0,1-.9-4.4,10.23,10.23,0,0,1,.73-4.1,7.45,7.45,0,0,1,2-2.75,8.11,8.11,0,0,1,3-1.56,13.17,13.17,0,0,1,3.72-.5,20.37,20.37,0,0,1,4.47.47,12,12,0,0,1,3.44,1.28l-1.83,5.26a8.58,8.58,0,0,0-2.38-1,11.73,11.73,0,0,0-3.42-.48,4.59,4.59,0,0,0-2.82.76,2.64,2.64,0,0,0-1,2.23,3.43,3.43,0,0,0,.89,2.35,12.57,12.57,0,0,0,2.24,2c.89.64,1.87,1.29,2.92,2a17.82,17.82,0,0,1,2.92,2.37,12.15,12.15,0,0,1,2.24,3.17,9.89,9.89,0,0,1,.89,4.34,11.74,11.74,0,0,1-.73,4.36,8.13,8.13,0,0,1-2.07,3.06,9,9,0,0,1-3.23,1.82,13.41,13.41,0,0,1-4.19.62,20.4,20.4,0,0,1-5.11-.57,13.31,13.31,0,0,1-3.37-1.28l1.93-5.36a14,14,0,0,0,2.59,1.14,10.77,10.77,0,0,0,3.54.57Q538.23,160.7,538.23,157Z"/></g></g></svg>